<?xml version="1.0" encoding="UTF-8"?>
    <!-- The Best Svg Icon site in the world: iconSvg.co, Visit us! https://iconsvg.co -->
    <svg id="svg" fill="#FFFFFF" stroke="#FFFFFF" width="30px" height="30px" version="1.1" viewBox="144 144 512 512" xmlns="http://www.w3.org/2000/svg">
    <g id="IconSvg_bgCarrier" stroke-width="0"></g>
    <g id="IconSvg_tracerCarrier" stroke-linecap="round" stroke-linejoin="round" stroke="#CCCCCC"></g>
     <g id="IconSvg_iconCarrier">
      <g xmlns="http://www.w3.org/2000/svg">
  <path d="m611.56 507.5v11.414 5.8555 1.4766c0 0.54297-0.39453 2.8555-0.097656 1.3789-0.19531 0.98438-0.39453 1.918-0.6875 2.8555-0.14844 0.44141-0.93359 2.2148-0.29688 0.93359-0.39453 0.78906-0.78906 1.5234-1.2305 2.2617-0.19531 0.34375-1.6719 2.2617-0.6875 1.1328-0.58984 0.73828-1.2773 1.4258-1.9688 2.1172-0.29688 0.29688-0.64062 0.58984-0.93359 0.83594-0.83594 0.73828 0.88672-0.58984 0 0-0.6875 0.49219-1.4258 0.93359-2.1641 1.3789-0.39453 0.19531-0.78906 0.39453-1.1328 0.58984-0.98438 0.54297 1.0312-0.34375 0 0.050781-0.93359 0.34375-1.8711 0.64062-2.8047 0.88672-0.44141 0.097656-0.88672 0.19531-1.2773 0.24609 0.29688-0.050781 1.4258-0.097656-0.050782 0-0.6875 0.050782-1.3789 0.097657-2.0664 0.097657h-0.050781-0.44141-17.762-38.277-53.234-61.305-63.91-60.172-50.184-34.441c-4.7734 0-9.6914 0.24609-14.465-0.097657-1.4766-0.097656-0.34375-0.050781-0.050781 0-0.44141-0.097656-0.88672-0.14844-1.2773-0.24609-0.83594-0.19531-1.6719-0.49219-2.5078-0.73828-0.29688-0.097657-1.2305-0.58984-0.050781 0-0.39453-0.19531-0.78906-0.39453-1.1328-0.58984-0.83594-0.44141-1.6719-0.98438-2.4609-1.5234-0.6875-0.49219 0.14844 0.097656 0.24609 0.19531-0.34375-0.29688-0.64062-0.54297-0.98438-0.83594-0.64062-0.58984-1.1797-1.2305-1.7695-1.8203-0.93359-0.98438-0.24609-0.24609-0.050782 0-0.24609-0.34375-0.49219-0.6875-0.73828-1.0312-0.54297-0.83594-0.98438-1.6719-1.4258-2.5078-0.54297-0.98438 0.34375 1.0312-0.050782 0-0.14844-0.39453-0.29687-0.83594-0.44141-1.2305-0.24609-0.83594-0.44141-1.6719-0.64062-2.5586-0.24609-1.1328 0.097657 1.1328-0.050781 0-0.050781-0.44141-0.097656-0.88672-0.097656-1.3281 0-0.39453 0-0.78906-0.050782-1.1797v-4.6758-12.988-0.24609c0-0.44141 0.29688-1.2305 0-0.050781 0.050782-0.19531 0.097657-1.082 0.050782-0.34375-0.050782 0.83594 0.58984-0.64062 0-0.050782-0.64062 0.64063 0.29688-0.29687 0.44141-0.44141 0.097656-0.050781 0.14844-0.14844 0.24609-0.19531-0.58984 0.44141-0.64062 0.54297-0.19531 0.24609 0.44141-0.24609 0.34375-0.24609-0.29688 0.097656 0.19531-0.050782 0.44141-0.097656 0.64062-0.19531-1.2305 0.34375 0 0.050781 0.49219 0 12.055-0.14844 24.109 0 36.164 0h61.941 43.344c0.88672 0 1.7695 0.050781 2.6562 0h0.73828c-1.2305 0-0.29688-0.097656 0.050781 0 0.44141 0.097657 0.88672 0.24609 1.2773 0.34375 0.34375 0.097657 1.1328 0.64062 0.097656 0.050781 0.39453 0.19531 0.78906 0.44141 1.1328 0.6875 0.29688 0.19531 0.93359 0.88672 0.097657 0.050782 0.097656 0.097656 1.3281 1.3789 0.78906 0.6875-0.54297-0.64062 1.1797 1.9688 0.78906 1.2305-0.39453-0.78906 0.29688 0.88672 0.34375 1.0312 0.73828 2.3633 1.6719 4.5742 3.1992 6.543 4.082 5.4102 10.035 8.3633 16.828 8.4141h6.1484 57.121c6.1016 0 12.152 0.050781 18.254 0 5.7578-0.050782 11.465-2.0664 15.398-6.3945 1.8203-2.0156 3.1016-4.1328 4.082-6.5938 0.24609-0.64062 0.49219-1.2773 0.6875-1.9688 0.14844-0.44141 0.24609-0.88672 0.44141-1.3281-0.39453 0.98437 0.050781 0.097656 0.29688-0.34375 0.097656-0.19531 0.93359-1.2305 0.39453-0.58984-0.54297 0.64062 0.39453-0.34375 0.54297-0.49219 0.54297-0.58984-0.097656 0-0.24609 0.097656 0.34375-0.29687 0.73828-0.44141 1.1328-0.73828 0.88672-0.6875 0.49219-0.29688 0.050781-0.097656 0.39453-0.14844 0.83594-0.29688 1.2773-0.44141 0.44141-0.097657 0.88672-0.24609 1.3281-0.29688-1.3789 0.19531-0.14844 0.097656 0.097656 0.097656 2.9023 0.14844 5.8555 0 8.7578 0h21.941 61.5 47.379 4.2305 0.6875c0.44141 0 1.2305 0.29688 0.050781 0 1.1328 0.29688 0.097656-0.097656 0.050781-0.050781 0.050782-0.097657 1.3789 0.98438 0.097656-0.097657 0.19531 0.19531 0.54297 0.44141 0.6875 0.6875 0.050782 0.097657 0.14844 0.14844 0.19531 0.24609-0.44141-0.58984-0.54297-0.64062-0.24609-0.19531 0.050781 0.097656 0.097657 0.19531 0.14844 0.29688-0.24609-0.6875-0.29688-0.78906-0.14844-0.24609 0.30469 1.0703-0.089843-1.8789 0.007813 0.23438 0.14844 3.8359 3.2969 7.5781 7.3789 7.3789 3.8867-0.19531 7.5273-3.2461 7.3789-7.3789-0.34375-8.8086-6.9883-15.398-15.793-15.645-1.082-0.050781-2.2148 0-3.2969 0h-17.957-60.172-53.578c-3.1016 0-6.25-0.050781-9.3477 0-9.3477 0.19531-16.68 6.1484-19.484 14.957-0.14844 0.44141-0.24609 0.88672-0.44141 1.3281 0.19531-0.44141 0.54297-0.88672-0.14844 0.050781-0.24609 0.34375-0.44141 0.78906-0.73828 1.1328 0.19531-0.29688 0.78906-0.93359-0.14844 0-0.19531 0.19531-1.0312 0.93359 0 0.14844-0.34375 0.29688-0.73828 0.49219-1.1328 0.73828-0.19531 0.14844-1.2773 0.64062-0.050781 0.097656-0.49219 0.19531-1.082 0.34375-1.5742 0.49219-0.24609 0.050781-1.5742 0.19531-0.6875 0.14844 1.5742-0.097657-1.9688-0.097657-0.39453-0.050781h-0.097656-0.54297c-16.727 0.097656-33.457 0-50.184 0h-26.074c-1.8711 0-3.7383-0.050782-5.6094 0h-0.54297c-0.88672 0 0.097657 0.097656 0.24609 0.097656-0.44141-0.050782-0.88672-0.14844-1.3281-0.29688-0.39453-0.097657-0.88672-0.24609-1.2773-0.44141 1.4258 0.58984-0.44141-0.39453-0.58984-0.49219-0.29688-0.19531-0.93359-0.88672-0.097656-0.050781-0.29688-0.29688-0.64063-0.64062-0.93359-0.93359 0.93359 0.93359-0.54297-0.88672-0.73828-1.2305 0.58984 1.082-0.097656-0.34375-0.24609-0.78906-0.44141-1.3789-0.93359-2.707-1.5742-4.0352-3.3438-6.8398-10.629-10.824-18.055-10.922h-3.3945-17.859-60.418-53.48c-3.0508 0-6.1484-0.097657-9.25 0-8.9062 0.29687-15.547 7.1836-15.695 16.09-0.050781 4.4766 0 9.0039 0 13.48 0 5.5586 0.29688 10.875 2.5078 16.09 3.4453 8.0703 10.234 14.168 18.547 16.926 3.7383 1.2305 7.625 1.4258 11.512 1.4258h23.418 43.445 56.727 63.762 64.648 58.598 46.395 27.848 4.8711c13.875-0.14844 26.715-9.7422 29.617-23.566 0.93359-4.4766 0.73828-9.0039 0.73828-13.531v-11.219c0-3.8359-3.3945-7.5781-7.3789-7.3789-3.9297 0.19531-7.3242 3.2461-7.3242 7.3789z"/>
  <path d="m577.41 261.84v23.664 56.777 68.438 59.188c0 9.5938-0.54297 19.336 0 28.93v0.39453c2.4609-2.4609 4.9219-4.9219 7.3789-7.3789h-23.961-49.051-39.852c-3.2969 0-6.5938-0.14844-9.8398 0.44141-7.3789 1.3281-13.578 7.3789-15.449 14.516-0.49219 1.8711-1.918 3.3945-3.3945 3.7891-0.34375 0.097657-2.0664 0.34375-1.082 0.29688-0.14844 0-0.54297 0.050781-0.83594 0h-0.29688c-11.562 0.097656-23.125 0-34.688 0h-43.395-4.0352-0.24609-0.73828c1.2773 0-0.49219-0.097657-1.0312-0.24609-0.29688-0.097656-0.64063-0.19531-0.93359-0.34375 0.14844 0.050781 0.93359 0.49219 0.24609 0.050781-0.29688-0.19531-1.625-1.1328-1.1797-0.73828 0.73828 0.64062-1.3789-1.625-0.39453-0.29688-0.19531-0.24609-0.39453-0.54297-0.54297-0.83594-0.050781-0.097656-0.73828-1.2773-0.39453-0.64062 0.34375 0.6875-0.097657-0.29688-0.14844-0.39453-0.097656-0.34375-0.19531-0.6875-0.29688-1.0312-0.39453-1.2305-0.88672-2.4102-1.4258-3.5898-0.88672-1.7695-2.1172-3.4922-3.543-4.9219-2.7539-2.8555-6.5938-5.0195-10.527-5.6562-1.7695-0.29688-3.4922-0.39453-5.2656-0.39453h-32.422-49.988-33.258-1.6719l7.3789 7.3789v-36.164-80.047-81.082c0-13.285 0.39453-26.617 0-39.902v-0.14844c0-0.34375 0.19531-1.4258-0.097656-0.050781 0.050781-0.19531 0.6875-2.2617 0.050781-0.73828 0.24609-0.58984 0.58984-1.1328 0.93359-1.6719-0.73828 1.0312 0.19531-0.050782 0.54297-0.39453-1.1328 1.0312 0.34375-0.14844 0.58984-0.29687 1.625-0.98438-0.73828 0.14844 0.34375-0.097657 0.44141-0.097656 1.7695-0.19531 0.34375-0.14844-6.543 0.24609 0.49219-0.050782 0.6875 0h0.14844c0.93359 0.050781 1.8711 0 2.8555 0h15.203 59.777 82.508 85.805 68.98c10.727 0 21.5-0.097656 32.273 0h0.49219c0.19531 0 7.2305 0.29688 0.6875 0-1.4258-0.050782-0.097656 0.050781 0.34375 0.14844 1.082 0.24609-1.2773-0.88672 0.34375 0.097657 0.24609 0.14844 1.7227 1.3789 0.58984 0.29687 0 0 1.3789 1.4766 0.73828 0.64063-0.64062-0.83594 0.49219 0.88672 0.49219 0.83594 0.097657 0.19531 0.19531 0.39453 0.29688 0.58984-0.34375-0.73828-0.34375-0.73828-0.097657 0.097656 0.050781 0.19531 0.097657 0.44141 0.14844 0.64062-0.14844-0.93359-0.14844-0.88672-0.097657 0 0.097657 3.8359 3.2969 7.5781 7.3789 7.3789 3.8867-0.19531 7.5273-3.2461 7.3789-7.3789-0.29688-10.184-8.168-17.957-18.352-18.156h-2.9531-15.547-60.961-84.281-86.199-68.387c-9.7891 0-19.582-0.24609-29.371 0-10.137 0.24609-18.008 8.0703-18.254 18.203-0.050782 1.0312 0 2.0156 0 3.0508v19.828 74.734 85.609 51.562 2.5078c0 3.9844 3.3945 7.3789 7.3789 7.3789h23.961 49.051 39.852 4.5742 1.0312 0.19531c1.3789 0 0.78906 0 0.34375-0.050781 0.49219 0.097656 0.98438 0.24609 1.4766 0.34375 1.4766 0.39453 2.9023 1.918 3.3945 3.7891 0.93359 3.543 3 7.0352 5.707 9.4961 3.8867 3.543 8.8555 5.4102 14.121 5.4609 11.562 0.097657 23.125 0 34.688 0h43.395c7.1328 0 14.168-0.78906 19.238-6.6406 1.3281-1.5742 2.4609-3.1992 3.3438-5.0664 0.49219-1.082 0.88672-2.1172 1.2305-3.2461 0.097656-0.34375 0.19531-0.64063 0.29688-0.98438 0.34375-1.0312-0.49219 0.83594 0.097657-0.097656 0.19531-0.29688 1.1328-1.625 0.73828-1.1797-0.58984 0.6875 1.625-1.3789 0.29688-0.39453 0.54297-0.39453 1.1328-0.6875 1.6719-1.0312-1.0312 0.58984 0.54297-0.19531 1.0312-0.29688 0.34375-0.097656 0.64062-0.14844 0.98438-0.19531-1.3789 0.19531-0.14844 0.097656 0.097656 0.097656h0.19531 1.1328 32.422 49.988 33.258 1.6719c3.9844 0 7.3789-3.3945 7.3789-7.3789v-23.664-56.777-68.438-59.188c0-9.6445 0.29688-19.285 0-28.93v-0.39453c0-3.8359-3.3945-7.5781-7.3789-7.3789-3.9219 0.24219-7.3164 3.293-7.3164 7.4258z"/>
  <path d="m472.03 367.33c-36.164-19.926-79.41-25.094-119.16-13.629-11.367 3.2969-22.336 7.9219-32.668 13.629-2.2617 1.2305-3.6406 3.8359-3.6406 6.3945v24.453c3.6914-2.1172 7.3789-4.2305 11.121-6.3945-16.188-8.2656-32.422-16.582-48.609-24.848-2.3125-1.1797-4.5742-2.3633-6.8867-3.4922v12.742c14.316-7.332 28.633-14.613 42.902-21.941 22.977-11.758 45.953-23.52 68.98-35.277 5.2656-2.707 10.527-5.3633 15.793-8.0703h-7.4297c14.465 7.3789 28.93 14.809 43.395 22.188 22.926 11.711 45.805 23.418 68.734 35.129 5.1641 2.6562 10.383 5.3125 15.547 7.9688v-12.742c-16.188 8.2656-32.422 16.582-48.609 24.848-2.3125 1.1797-4.5742 2.3633-6.8867 3.4922 3.6914 2.1172 7.3789 4.2305 11.121 6.3945v-24.453c0-3.8359-3.3945-7.5781-7.3789-7.3789-3.9844 0.19531-7.3789 3.2461-7.3789 7.3789v24.453c0 5.8555 6.1992 8.8555 11.121 6.3945 16.188-8.2656 32.422-16.582 48.609-24.848 2.3125-1.1797 4.5742-2.3633 6.8867-3.4922 4.8203-2.4609 4.8203-10.281 0-12.742-14.465-7.3789-28.879-14.762-43.344-22.141-23.027-11.758-46.102-23.566-69.125-35.324-5.0195-2.5586-9.9883-5.2656-15.055-7.7227-3.5898-1.7227-6.2969-0.73828-9.3477 0.83594-2.6094 1.3281-5.2148 2.6562-7.8711 4.0352-21.941 11.219-43.836 22.434-65.781 33.652-17.074 8.707-34.145 17.465-51.168 26.176-0.34375 0.19531-0.73828 0.34375-1.082 0.54297-4.8203 2.4609-4.8203 10.281 0 12.742 16.188 8.2656 32.422 16.582 48.609 24.848 2.3125 1.1797 4.5742 2.3633 6.8867 3.4922 4.9219 2.5078 11.121-0.54297 11.121-6.3945v-24.453c-1.2305 2.1172-2.4609 4.2305-3.6406 6.3945 32.914-18.156 71.832-22.535 107.8-12.102 10.43 3 19.68 6.8867 29.176 12.102 3.4922 1.918 8.0703 0.83594 10.086-2.6562 1.8047-3.4414 0.67188-8.2148-2.8203-10.184z"/>
  <path d="m460.91 373.73v58.105 8.3633c2.4609-2.4609 4.9219-4.9219 7.3789-7.3789h-48.758-77.734-17.859l7.3789 7.3789v-58.105-8.3633c-1.2305 2.1172-2.4609 4.2305-3.6406 6.3945 32.914-18.156 71.832-22.535 107.8-12.102 10.43 3 19.68 6.8867 29.176 12.102 3.4922 1.918 8.0703 0.83594 10.086-2.6562 1.9688-3.3945 0.83594-8.168-2.6562-10.086-36.164-19.926-79.41-25.094-119.16-13.629-11.367 3.2969-22.336 7.9219-32.668 13.629-2.2617 1.2305-3.6406 3.8359-3.6406 6.3945v58.105 8.3633c0 3.9844 3.3945 7.3789 7.3789 7.3789h48.758 77.734 17.859c3.9844 0 7.3789-3.3945 7.3789-7.3789v-58.105-8.3633c0-3.8359-3.3945-7.5781-7.3789-7.3789-4.0312 0.14844-7.4258 3.1992-7.4258 7.332z"/>
  <path d="m516.41 369.79v36.406c0 3.8359 3.3945 7.5781 7.3789 7.3789 3.9844-0.19531 7.3789-3.2461 7.3789-7.3789v-36.406c0-3.8359-3.3945-7.5781-7.3789-7.3789-4.0352 0.19531-7.3789 3.2461-7.3789 7.3789z"/>
 </g>

      </g>
      </svg>